<svg id="レイヤー_1" data-name="レイヤー 1" xmlns="http://www.w3.org/2000/svg" viewBox="0 0 786.58 292.51"><defs><style>.cls-1,.cls-5,.cls-8{fill:none;stroke-linejoin:round;}.cls-1,.cls-3,.cls-5,.cls-7,.cls-8{stroke:#fcbe00;}.cls-1,.cls-5,.cls-7,.cls-8{stroke-linecap:round;}.cls-1{stroke-width:12px;}.cls-2{fill:#fff;}.cls-3,.cls-7{fill:#fff15c;}.cls-3,.cls-7,.cls-9{stroke-miterlimit:10;}.cls-3{stroke-width:6px;}.cls-4{fill:#fcbe00;}.cls-5{stroke-width:3px;}.cls-6{fill:#7f62ff;}.cls-7{stroke-width:9px;}.cls-8{stroke-width:7px;}.cls-9{fill:#ffe6b3;stroke:#e9bc00;}</style></defs><path class="cls-1" d="M196.09,252.27c4.74,7.7,27.78,0,38.51,10.87,33.49,33.9,106.85,50.67,181.93,44.67,162.11-12.95,270.52-35,369-4.2" transform="translate(-29.57 -22.5)"/><path class="cls-2" d="M80.19,67.53" transform="translate(-29.57 -22.5)"/><path class="cls-3" d="M68.13,180.92C80.3,201.06,90.24,218.37,120,251c14.08,15.44,37.66,35.8,59.91,41.85,7.95,2.16,33.44,8.69,60.79-3.08a78.18,78.18,0,0,0,32.6-25.11c2.84-3.81,12.63-17.24,14.54-36.13,1.39-13.77-1.62-28.41-15.86-53.3-28-48.87-63.41-75.85-82.82-89.86C187,83.79,160,64.54,138.73,61.82c-15.9-2-22.49-1.65-22.49-1.65-6.86.42-9.69,1.46-14.95,0C95.56,58.61,88,54.37,87.45,48.87c-.21-2.2.85-3.17,0-4.86-1.44-2.88-6.71-4.65-10.64-2.55-3,1.6-4.92,5.28-4.17,8.1.68,2.55,3.06,2.59,4.63,5.09,3.07,4.88-1,12.53-1.62,13.65-4.21,7.89-11.27,9.41-17.12,13.42-14.66,10-14.39,43-12.89,52.3C48.19,149.72,54.82,158.91,68.13,180.92Z" transform="translate(-29.57 -22.5)"/><path class="cls-4" d="M76.68,38.16c-4.8,1.83-9,7.38-7.45,12.4,1.67,5.3,9,7.35,14.28,5.52,5.07-1.77,9.42-7.5,7.82-12.55C89.63,38.2,82.07,36.1,76.68,38.16Z" transform="translate(-29.57 -22.5)"/><path class="cls-5" d="M98.63,60.14c1.93-4.6,9-13.7,17.35-19.6,12.74-9,18.71-8.85,23.86-10" transform="translate(-29.57 -22.5)"/><path class="cls-5" d="M105.71,60.91c16.43-17.36,28.72-20.46,34.13-21.63" transform="translate(-29.57 -22.5)"/><path class="cls-5" d="M101.56,67.53" transform="translate(-29.57 -22.5)"/><path class="cls-5" d="M35.39,74.06c14.51-3.14,28.83-6.75,42.22-6.75" transform="translate(-29.57 -22.5)"/><path class="cls-5" d="M32.14,92.74c22.43-13.5,25-15.12,48.05-18.68" transform="translate(-29.57 -22.5)"/><path class="cls-6" d="M78.6,85.36c-3.7,1-5.52,5.39-4.7,8.82,1,4.4,6.44,7.33,10.19,5.49,3.43-1.68,4.47-6.85,2.55-10.39C85.23,86.69,81.93,84.45,78.6,85.36Z" transform="translate(-29.57 -22.5)"/><path class="cls-6" d="M108.4,77.74c1.9,2.94,5.3,4.14,7.84,3.13,3.42-1.36,4.42-6.41,2.45-9.68-1.84-3-6.38-4.72-9.33-2.52C106.9,70.52,106.21,74.58,108.4,77.74Z" transform="translate(-29.57 -22.5)"/><path class="cls-4" d="M429.76,154.57a11.42,11.42,0,0,1-2.78,6.1,11.93,11.93,0,0,1-5.2,3.5,10,10,0,0,1-6.06.08,9.07,9.07,0,0,1-5.2-4.31,12.71,12.71,0,0,1-2-5.77c-.18-2-.38-4.09-.61-6.26q-.35-3.58-.78-6.26t-.95-6.27q-1.56-9.75-3.47-19.27T398.39,97q-3.47,8.13-6.58,16.1t-6.24,16.1q-2.43,6-4.77,12.11a95.56,95.56,0,0,1-5.46,11.79,7.63,7.63,0,0,1-3.46,3.17,13,13,0,0,1-5.2,1.38,12.64,12.64,0,0,1-5.2-.73,6.69,6.69,0,0,1-3.64-3q-7.45-13.48-14.73-26.83t-14.56-26.83q-.85,8.3-1.55,16.67t-1.56,16.67c-.12,1.73-.24,3.85-.35,6.34s-.32,5-.61,7.56-.63,5-1,7.32a13.35,13.35,0,0,1-2,5.45,9.54,9.54,0,0,1-5.46,4.22,12.29,12.29,0,0,1-6.58.17,10.34,10.34,0,0,1-5.38-3.34,8.9,8.9,0,0,1-2-6.42q.34-6.66,1.21-13.17t1.56-13.18q1.4-14.46,2.86-28.78t2.86-28.95a26,26,0,0,1,1.82-7.8q1.47-3.59,6.33-5a9.69,9.69,0,0,1,4-.49,9.19,9.19,0,0,1,3.82,1.14,16.05,16.05,0,0,1,6,6.26c1.45,2.66,2.8,5.18,4.08,7.56q3.29,5.85,6.41,11.79T349.18,96q3.81,7.48,7.71,14.72T365,125.3q1-2.43,2-4.88c.63-1.62,1.3-3.25,2-4.88q1.9-4.22,3.55-8.53t3.38-8.54q2.43-5.53,4.59-10.9c1.45-3.57,2.86-7.21,4.25-10.89q1.73-4.07,3.29-8.78a18.84,18.84,0,0,1,5-8A9.73,9.73,0,0,1,398.3,57a10.44,10.44,0,0,1,5.38.41,11.38,11.38,0,0,1,4.5,3A12.46,12.46,0,0,1,411,65.29q1,3.75,2.43,8.46c.92,3.15,1.73,6,2.42,8.46q1.91,6.83,3.47,13.41T422.3,109q2.43,11.22,4.25,22.2t3.21,22.2Z" transform="translate(-29.57 -22.5)"/><path class="cls-4" d="M441.19,119.94a51.26,51.26,0,0,1,8.66-18,49.86,49.86,0,0,1,7-7.57,36,36,0,0,1,8.41-5.53,37.08,37.08,0,0,1,16-4,35.6,35.6,0,0,1,15,3,31.11,31.11,0,0,1,11.78,9.19,32.43,32.43,0,0,1,6.41,14.55,76.63,76.63,0,0,1,1,10.49,42,42,0,0,1-8.14,25.53,50.85,50.85,0,0,1-12.65,12.69,41.2,41.2,0,0,1-16.12,6.75A28.06,28.06,0,0,1,461,164.49a39.15,39.15,0,0,1-7.2-4.14,30.43,30.43,0,0,1-5.8-5.61,30,30,0,0,1-4.59-7.48,53.78,53.78,0,0,1-2.69-8.13,27.5,27.5,0,0,1-.87-9.19,75.22,75.22,0,0,1,1.22-9ZM462,123.35c-.34,1.74-.63,3.44-.86,5.12a19.16,19.16,0,0,0,0,5.13,20.18,20.18,0,0,0,2.16,6.83,13.19,13.19,0,0,0,4.34,4.88,11.4,11.4,0,0,0,6.15,1.87,15.29,15.29,0,0,0,7.45-2,24,24,0,0,0,8.66-8.54,30.05,30.05,0,0,0,4.51-12A22.89,22.89,0,0,0,493,112.7q-2.25-5.61-8.83-8a20.24,20.24,0,0,0-8,1.54,21.58,21.58,0,0,0-6.32,4.07,26.15,26.15,0,0,0-4.68,5.94A36.38,36.38,0,0,0,462,123.35Z" transform="translate(-29.57 -22.5)"/><path class="cls-4" d="M603.56,146.12a9.62,9.62,0,0,1,1.82,5,12,12,0,0,1-.69,5.36,9.12,9.12,0,0,1-3.12,4.15,8.55,8.55,0,0,1-5.64,1.47,11.48,11.48,0,0,1-7.27-2.93,43.47,43.47,0,0,1-5.2-5.86,41.46,41.46,0,0,1-14,7.24,32.28,32.28,0,0,1-14.13.89,30.74,30.74,0,0,1-13-5.44,35.45,35.45,0,0,1-10.23-11.63,34.3,34.3,0,0,1-4.24-15.12q-.43-8.3-.26-15.78c0-1.73.05-3.44.17-5.12s.23-3.44.35-5.29c.11-1.4.17-2.79.17-4.14a27.23,27.23,0,0,1,.26-3.83,13.77,13.77,0,0,1,1-3.57A11.73,11.73,0,0,1,532,88.06a8.49,8.49,0,0,1,5-2.52,11.62,11.62,0,0,1,5.63.57,12.36,12.36,0,0,1,4.68,3,7.51,7.51,0,0,1,2.16,5,125.43,125.43,0,0,1-.43,16.75,83.51,83.51,0,0,0,.09,16.59,24.81,24.81,0,0,0,2.16,8,11.2,11.2,0,0,0,5.81,5.86,9.76,9.76,0,0,0,8-.24,22.75,22.75,0,0,0,6.68-4.48,32.49,32.49,0,0,0,2.34-2.84A14.34,14.34,0,0,1,576.7,131q-.69-5.69-.87-11.38c-.11-3.79-.11-7.59,0-11.38q0-3.09.26-6.75a28.41,28.41,0,0,1,1.39-7,16.72,16.72,0,0,1,3.38-5.85,10.41,10.41,0,0,1,6.41-3.17,7.29,7.29,0,0,1,3.73.32,11,11,0,0,1,3.2,1.79A10,10,0,0,1,597.49,92a15.44,15.44,0,0,1,.87,5.21,38.48,38.48,0,0,1-.43,5.61c-.29,1.9-.5,3.66-.61,5.28-.23,3-.41,6.24-.52,9.6a72.28,72.28,0,0,0,.35,10.08,49.41,49.41,0,0,0,2,9.76A28,28,0,0,0,603.56,146.12Z" transform="translate(-29.57 -22.5)"/><path class="cls-4" d="M615.51,147.91a13,13,0,0,1-.86-5.45,10.67,10.67,0,0,1,1.47-4.88,8.85,8.85,0,0,1,3.72-3.41,10.64,10.64,0,0,1,5.9-.9,9.13,9.13,0,0,1,3.46,1,14.44,14.44,0,0,1,2.86,1.95c.87.76,1.73,1.57,2.6,2.44a20,20,0,0,0,2.69,2.27,20.73,20.73,0,0,0,6.23,3.09,46.56,46.56,0,0,0,6.94,1.47,6.18,6.18,0,0,0,3.89-1.14,5.6,5.6,0,0,0,2-2.77,7.92,7.92,0,0,0,.26-3.49,5.45,5.45,0,0,0-1.3-3,14.27,14.27,0,0,0-7.19-3.58,70.57,70.57,0,0,1-7.89-1.95,67,67,0,0,1-10.22-4.15,21.77,21.77,0,0,1-8.15-6.91,20.54,20.54,0,0,1-3.9-9.67,24.41,24.41,0,0,1,5.81-19,28.57,28.57,0,0,1,8.32-6.67,23,23,0,0,1,8-2.52,42.58,42.58,0,0,1,8.75-.24A44.6,44.6,0,0,1,657.62,82a78.08,78.08,0,0,1,8,2.69,13.39,13.39,0,0,1,6.24,5,11.48,11.48,0,0,1,2,6.58,8.41,8.41,0,0,1-2.42,5.78c-1.56,1.62-3.84,2.44-6.85,2.44a13.4,13.4,0,0,1-5-.9q-2.26-.89-4.68-1.71a29.44,29.44,0,0,0-6.76-1.54,13.17,13.17,0,0,0-5.89.41,3.55,3.55,0,0,0-1.56,1,5.69,5.69,0,0,0-1.3,2.2,4.91,4.91,0,0,0-.17,2.6,3.1,3.1,0,0,0,1.82,2.11,40,40,0,0,0,8.83,3.26c3.12.76,6.18,1.62,9.19,2.6a42.49,42.49,0,0,1,8.4,3.74,18.72,18.72,0,0,1,6.5,6.5,25,25,0,0,1,3.9,12.93A26.92,26.92,0,0,1,675,150.35a27.77,27.77,0,0,1-8.66,10,27.39,27.39,0,0,1-13.35,5,36.65,36.65,0,0,1-10.57-.57,42.46,42.46,0,0,1-10-3.42,50,50,0,0,1-9-5.61,52,52,0,0,1-7.28-6.83Z" transform="translate(-29.57 -22.5)"/><path class="cls-4" d="M753.28,137a14.82,14.82,0,0,1,7.36-.08,9.48,9.48,0,0,1,4.94,3,7.3,7.3,0,0,1,1.56,5.2,11.64,11.64,0,0,1-2.95,6.51,18.24,18.24,0,0,1-6.23,4.71,58,58,0,0,1-7.46,3.09,91,91,0,0,1-16.11,4.07,45.08,45.08,0,0,1-14.3,0,34.63,34.63,0,0,1-12.48-4.72,41,41,0,0,1-10.83-10.08,29.34,29.34,0,0,1-5.11-10,45.39,45.39,0,0,1-1.82-11.47,48.49,48.49,0,0,1,1-11.54,43.62,43.62,0,0,1,3.47-10.25,30.65,30.65,0,0,1,9.36-10.41,55,55,0,0,1,14.2-7.48,55.92,55.92,0,0,1,16-3.17,31.3,31.3,0,0,1,14.38,2.36,24.8,24.8,0,0,1,8.92,6.59,23.91,23.91,0,0,1,5.12,9.35,20.92,20.92,0,0,1,.26,10.16,18.16,18.16,0,0,1-5.64,9.35,38.06,38.06,0,0,1-9.53,6.59,91.89,91.89,0,0,1-10.74,4.39,112.51,112.51,0,0,1-11.35,3.17q-5.81,1.3-11.18,2.93a16.18,16.18,0,0,0,8.32,5,28,28,0,0,0,9.79.4A42.77,42.77,0,0,0,742.53,142a85.31,85.31,0,0,0,9.71-4.47Zm-35-28a14.57,14.57,0,0,0-5.89,5.29,24.41,24.41,0,0,0-2.77,8.86q4.5-1.31,10.14-2.77t10.65-3.09a46.54,46.54,0,0,0,8.49-3.57q3.47-2,3.47-4.23a7.67,7.67,0,0,0-.43-2.52,2.76,2.76,0,0,0-1.82-1.71,19.75,19.75,0,0,0-10.05-.65,31.82,31.82,0,0,0-8.67,2.76Z" transform="translate(-29.57 -22.5)"/><path class="cls-4" d="M429.76,270.05a11.49,11.49,0,0,1-2.78,6.1,11.91,11.91,0,0,1-5.2,3.49,10,10,0,0,1-6.06.08,9,9,0,0,1-5.2-4.3,12.79,12.79,0,0,1-2-5.78q-.27-3-.61-6.26-.35-3.57-.78-6.26c-.29-1.79-.61-3.87-.95-6.26q-1.56-9.77-3.47-19.27t-4.33-19.11q-3.47,8.13-6.58,16.1t-6.24,16.1q-2.43,6-4.77,12.11a96.38,96.38,0,0,1-5.46,11.8,7.69,7.69,0,0,1-3.46,3.17,13.3,13.3,0,0,1-5.2,1.38,12.81,12.81,0,0,1-5.2-.73,6.73,6.73,0,0,1-3.64-3q-7.45-13.5-14.73-26.83t-14.56-26.84Q327.7,224,327,232.4t-1.56,16.67q-.18,2.61-.35,6.34t-.61,7.56c-.29,2.55-.63,5-1,7.32a13.3,13.3,0,0,1-2,5.45A9.52,9.52,0,0,1,316,280a12.39,12.39,0,0,1-6.58.16A10.26,10.26,0,0,1,304,276.8a8.91,8.91,0,0,1-2-6.43q.34-6.66,1.21-13.17T304.81,244q1.4-14.47,2.86-28.79t2.86-28.94a26,26,0,0,1,1.82-7.81q1.47-3.57,6.33-5a10,10,0,0,1,4-.49,9.19,9.19,0,0,1,3.82,1.14,16.12,16.12,0,0,1,6,6.26c1.45,2.66,2.8,5.18,4.08,7.56q3.29,5.87,6.41,11.79t6.24,11.79q3.81,7.49,7.71,14.72T365,240.78q1-2.44,2-4.88c.63-1.63,1.3-3.25,2-4.88q1.9-4.23,3.55-8.54t3.38-8.54q2.43-5.52,4.59-10.89t4.25-10.9q1.73-4.07,3.29-8.78a18.9,18.9,0,0,1,5-8,9.8,9.8,0,0,1,5.28-2.93,10.66,10.66,0,0,1,5.38.41,11.49,11.49,0,0,1,4.5,3,12.5,12.5,0,0,1,2.86,4.88q1,3.73,2.43,8.45t2.42,8.46q1.91,6.82,3.47,13.42t2.94,13.41q2.43,11.22,4.25,22.2t3.21,22.2Z" transform="translate(-29.57 -22.5)"/><path class="cls-4" d="M515.19,267.12q1.38,4.72-.52,7.81a9.33,9.33,0,0,1-5.29,4.14,11.81,11.81,0,0,1-7.36-.24,14.25,14.25,0,0,1-6.94-5.2,33.26,33.26,0,0,1-9.44,4.79A40.42,40.42,0,0,1,475.16,280a46.69,46.69,0,0,1-15.77-1.87,30.64,30.64,0,0,1-11.7-6.59,26,26,0,0,1-7-11,37.61,37.61,0,0,1-1.56-15.21,40.84,40.84,0,0,1,1.3-7c.63-2.28,1.36-4.5,2.17-6.67a46.51,46.51,0,0,1,3.9-7.64,50.39,50.39,0,0,1,5.11-7A52.74,52.74,0,0,1,475,201.58a41.81,41.81,0,0,1,6.59-1.46,49,49,0,0,1,8.4-.57,36.73,36.73,0,0,1,8.15,1.06,10.22,10.22,0,0,1,5.8,3.41,18,18,0,0,1,2.25,3.42,8.24,8.24,0,0,1,.78,3.09,33.82,33.82,0,0,1,0,3.49c-.06,1.25-.08,2.8-.08,4.64q0,4.56-.09,8.86t.09,8.7V240c0,1.58.05,3.23.17,5s.26,3.39.43,5a18.26,18.26,0,0,0,.78,3.83Zm-36.74-7.32q1.91-1.12,4.33-2.52a22.26,22.26,0,0,0,4.33-3.17,117.15,117.15,0,0,1-1.82-17.24q-.26-8.61.09-17.4a29.85,29.85,0,0,0-14,6.35,26.58,26.58,0,0,0-8.66,11.87,46.82,46.82,0,0,0-1.73,5.69,18.94,18.94,0,0,0-.52,5.69,10.83,10.83,0,0,0,2.08,6.26,12.52,12.52,0,0,0,4.59,3.82,14.76,14.76,0,0,0,5.72,1.47A13.73,13.73,0,0,0,478.45,259.8Z" transform="translate(-29.57 -22.5)"/><path class="cls-4" d="M525.06,263.38a13.12,13.12,0,0,1-.87-5.45,10.84,10.84,0,0,1,1.48-4.88,8.73,8.73,0,0,1,3.72-3.41,10.71,10.71,0,0,1,5.89-.89,9,9,0,0,1,3.47,1,14.88,14.88,0,0,1,2.86,1.95c.87.76,1.73,1.58,2.6,2.44a20.67,20.67,0,0,0,2.68,2.28,20.9,20.9,0,0,0,6.24,3.09,45.46,45.46,0,0,0,6.93,1.46,6.19,6.19,0,0,0,3.9-1.14,5.63,5.63,0,0,0,2-2.76,8,8,0,0,0,.26-3.5,5.55,5.55,0,0,0-1.3-3,14.2,14.2,0,0,0-7.2-3.57,73.16,73.16,0,0,1-7.88-2,67.53,67.53,0,0,1-10.22-4.14,21.79,21.79,0,0,1-8.15-6.91,20.57,20.57,0,0,1-3.9-9.68,24.45,24.45,0,0,1,.87-10,24.79,24.79,0,0,1,4.94-9,28.54,28.54,0,0,1,8.32-6.66,23,23,0,0,1,8-2.52,43.27,43.27,0,0,1,8.75-.25,44,44,0,0,1,8.75,1.55,76.55,76.55,0,0,1,8,2.68,13.44,13.44,0,0,1,6.24,5,11.51,11.51,0,0,1,2,6.59,8.43,8.43,0,0,1-2.42,5.77c-1.56,1.63-3.85,2.44-6.85,2.44a13.6,13.6,0,0,1-5-.89q-2.26-.9-4.68-1.71a29.57,29.57,0,0,0-6.76-1.55,13.32,13.32,0,0,0-5.89.41,3.4,3.4,0,0,0-1.56,1.06,5.53,5.53,0,0,0-1.3,2.19,5,5,0,0,0-.18,2.6,3.14,3.14,0,0,0,1.82,2.12,40.78,40.78,0,0,0,8.84,3.25q4.68,1.14,9.19,2.6a43.68,43.68,0,0,1,8.4,3.74,18.66,18.66,0,0,1,6.5,6.51,24.93,24.93,0,0,1,3.9,12.93,27,27,0,0,1-2.86,12.6,27.62,27.62,0,0,1-8.67,10,27.12,27.12,0,0,1-13.34,5,36,36,0,0,1-10.57-.57,41.84,41.84,0,0,1-10-3.41,50.25,50.25,0,0,1-9-5.61,52.63,52.63,0,0,1-7.28-6.83Z" transform="translate(-29.57 -22.5)"/><path class="cls-4" d="M605.81,220.12a15.32,15.32,0,0,1-6-2.76,10.2,10.2,0,0,1-3.46-4.55,7.75,7.75,0,0,1,0-5.37,11.7,11.7,0,0,1,10.48-7h6.76c0-.76-.06-2.42-.17-5s-.15-5.34-.09-8.38a82.29,82.29,0,0,1,.61-8.7c.34-2.76,1-4.69,1.9-5.77q3.46-4.56,8.58-4.31a10.77,10.77,0,0,1,8.41,4.63,12,12,0,0,1,1.3,1.95,4.6,4.6,0,0,1,.6,2.12q.18,5.85.09,11.71t-.09,11.71h13.69a7.93,7.93,0,0,1,5.37,2A11,11,0,0,1,657,207a10.66,10.66,0,0,1,.52,5.37,7,7,0,0,1-2.69,4.55,15.42,15.42,0,0,1-9.27,3.25q-5.28.16-10.83.17,0,8.94-.08,17.88t.08,17.89a74.81,74.81,0,0,0,.44,8,21,21,0,0,1-.61,7.81,9.18,9.18,0,0,1-3,4.63,9.62,9.62,0,0,1-4.68,2.12,13,13,0,0,1-5.37-.33,14,14,0,0,1-5.2-2.68,7.54,7.54,0,0,1-1.82-3.91,37.9,37.9,0,0,1-.78-5.85q-.16-3.57,0-7.64v-8.46q0-5.21-.08-10.81t-.09-10.66v-8Z" transform="translate(-29.57 -22.5)"/><path class="cls-4" d="M722.79,252.49a14.83,14.83,0,0,1,7.36-.09,9.48,9.48,0,0,1,4.94,3,7.33,7.33,0,0,1,1.56,5.21,11.62,11.62,0,0,1-2.95,6.5,18.08,18.08,0,0,1-6.24,4.72,59.38,59.38,0,0,1-7.45,3.09A91,91,0,0,1,703.9,279a45.08,45.08,0,0,1-14.3,0,34.8,34.8,0,0,1-12.48-4.71,41.24,41.24,0,0,1-10.83-10.09,29.25,29.25,0,0,1-5.11-10,44.94,44.94,0,0,1-1.82-11.46,48.58,48.58,0,0,1,1-11.55,43.09,43.09,0,0,1,3.47-10.24,30.53,30.53,0,0,1,9.35-10.41,54.89,54.89,0,0,1,14.21-7.48,55.92,55.92,0,0,1,16-3.17,31.3,31.3,0,0,1,14.38,2.35,24.8,24.8,0,0,1,8.92,6.59,23.91,23.91,0,0,1,5.12,9.35,21,21,0,0,1,.26,10.17,18.2,18.2,0,0,1-5.64,9.35,38,38,0,0,1-9.53,6.58,89.2,89.2,0,0,1-10.74,4.39,112.54,112.54,0,0,1-11.35,3.18q-5.81,1.29-11.18,2.92a16.11,16.11,0,0,0,8.32,5,28,28,0,0,0,9.79.41A43.24,43.24,0,0,0,712,257.45a87.09,87.09,0,0,0,9.71-4.48Zm-35-28a14.64,14.64,0,0,0-5.89,5.29,24.48,24.48,0,0,0-2.77,8.86c3-.86,6.38-1.79,10.13-2.76s7.31-2,10.66-3.09a46.52,46.52,0,0,0,8.49-3.58q3.47-1.95,3.47-4.23a7.47,7.47,0,0,0-.44-2.52,2.79,2.79,0,0,0-1.81-1.71,19.78,19.78,0,0,0-10.06-.65,31.84,31.84,0,0,0-8.66,2.77Z" transform="translate(-29.57 -22.5)"/><path class="cls-4" d="M754.5,224.11a16.22,16.22,0,0,0-.18-3.82,11.79,11.79,0,0,1-4.33-3.74,10.34,10.34,0,0,1-1.82-4.88,8.33,8.33,0,0,1,1-5,10.44,10.44,0,0,1,4.25-4,11.53,11.53,0,0,1,8.75-.81,24.33,24.33,0,0,1,8.23,3.9,53,53,0,0,1,9-5.2,36.29,36.29,0,0,1,9.53-2.85,28.86,28.86,0,0,1,9.88.25,28.48,28.48,0,0,1,9.88,4.06,22,22,0,0,1,4.5,3.66,9.73,9.73,0,0,1,2.6,5,10.32,10.32,0,0,1-.69,7.08,9.76,9.76,0,0,1-4.34,4.39,10,10,0,0,1-6.23.81,12.63,12.63,0,0,1-6.59-3.5,10.33,10.33,0,0,1-1.47-1.05,7.9,7.9,0,0,0-1.82-1.06,9.42,9.42,0,0,0-5.46.32,23.39,23.39,0,0,0-5.2,2.69,38.75,38.75,0,0,0-4.68,3.74l-3.9,3.66v41.47a11.13,11.13,0,0,1-1,4.71,9.3,9.3,0,0,1-4.93,5.21,11.38,11.38,0,0,1-6.76.81,11,11,0,0,1-5.9-3.25,9.24,9.24,0,0,1-2.51-6.67V224.51C754.32,225,754.38,224.81,754.5,224.11Z" transform="translate(-29.57 -22.5)"/><path class="cls-7" d="M132.94,82.61c.6-2,7.44-22.87,28.26-29.15,10.68-3.22,28.66-3.69,38.86,8.83s5.33,28.95,4.86,30.47c-5.89,18.91-27.28,27.62-41.51,27.82-7.53.11-17,0-27.91-9.16" transform="translate(-29.57 -22.5)"/><path class="cls-7" d="M65.78,114.35C49.39,120,37.46,133.21,34.67,149c-.34,1.88-4,24.48,11.81,37,14.26,11.33,35,7.06,47.27-2,15.62-11.52,21.72-34,14.18-55.14" transform="translate(-29.57 -22.5)"/><path class="cls-8" d="M63.08,134" transform="translate(-29.57 -22.5)"/><path class="cls-9" d="M71.84,125c-15.61,3-22,17.59-22.3,18.28C44.21,156,47,174.37,59.14,180.5c13.27,6.68,30.43-4.91,37.18-17.35,4.58-8.44,7.75-23.51-.93-32.54C87.15,122.05,73.73,124.67,71.84,125Z" transform="translate(-29.57 -22.5)"/><path class="cls-9" d="M153.77,73.3c2.35-2.3,9-8.81,19.16-9,1.49,0,15.13-.06,20.34,9.93,5.57,10.68-3.77,22.64-5,24.13-7.68,9.54-19.08,10.27-21.29,10.41s-19.93,3-23.9-11.91C141.49,90.75,148.41,78.57,153.77,73.3Z" transform="translate(-29.57 -22.5)"/><path class="cls-5" d="M35.39,61.82c14.51-3.14,28.83-.91,42.22-.91" transform="translate(-29.57 -22.5)"/><path class="cls-5" d="M93.5,54C105.71,36.17,113.39,29,128.72,24" transform="translate(-29.57 -22.5)"/></svg>