<svg id="レイヤー_1" data-name="レイヤー 1" xmlns="http://www.w3.org/2000/svg" viewBox="0 0 334.84 446.45"><defs><style>.cls-1{fill:#feae00;}</style></defs><path class="cls-1" d="M202.33,0H0V446.45H334.84V132.51H202.33ZM84.84,226.75A56.74,56.74,0,0,1,74.78,243.8a52.91,52.91,0,0,1-12.59,10.59q-6.64,3.92-19.34,7.23-6.54,1.45-8.59-6.25-.69-7.71,6.25-9,12.5-2.92,19.38-8.69a36.31,36.31,0,0,0,10.3-13.82,49.53,49.53,0,0,0,4-15.38q.58-5.37-5.18-5.17H37.48q-7.81,0-7.81-7.82t7.81-7.81H74.29q15.43,0,15.24,16.7A69.28,69.28,0,0,1,84.84,226.75Zm45.7,1.18A44,44,0,0,1,127.22,245a38.87,38.87,0,0,1-7.32,11.37A39.54,39.54,0,0,1,109.45,264q-6.35,2.34-8.3-3.32-1.75-6.34,2.64-8.3a22.39,22.39,0,0,0,6.15-3.52,20.76,20.76,0,0,0,5.57-7.51q2.43-5.09,2.53-13.87V226q0-6.24,6.16-6.25,6.35,0,6.34,6.25Zm25.69-11.53a42.32,42.32,0,0,1-6,12.31,34,34,0,0,1-7.86,8.3q-6,3.9-9-1-2.74-5.66,1.27-8.59a21.13,21.13,0,0,0,5.56-5.47c1.69-2.34,2.61-4.33,2.74-6q.59-4.48-3.52-4.29H107.79q-6.35,0-6.35-6.35v-.1q0-6.26,6.35-6.25h37.5c4.69.07,8,1.77,10,5.13S157.53,211.59,156.23,216.4Zm117.48-22.75q0-7.43,7.42-7.42t7.42,7.42v45.6c.07,2,1.17,2.61,3.32,1.76a41,41,0,0,0,6-3.61q5.18-3.9,9.38,0,3.21,5.76-1.18,10.55a47.45,47.45,0,0,1-14.45,11.32q-7.12,3.14-12.4-.39T273.71,248ZM243.92,253a154,154,0,0,0,5.13-19.28,101.48,101.48,0,0,0,1.61-18.7V194.63q0-7.33,7.33-7.33t7.42,7.33V215A129.46,129.46,0,0,1,263,241a101.58,101.58,0,0,1-5,17.09q-3.13,6.45-10.16,4.3Q241.1,260,243.92,253Zm-29.39-65.23q3.12-4.89,10.16-2.34,6.63,4.1,3.12,9.76a114,114,0,0,1-6.88,9.67q-3.37,4.2-8.26,9.77V258.3q0,7.71-7.71,7.71t-7.72-7.71V226.56A113.37,113.37,0,0,1,177,239q-5.86,2.64-9-2.73-2.43-8.11,3.52-10.94a89.21,89.21,0,0,0,29.2-19.68A81.29,81.29,0,0,0,214.53,187.79Z" transform="translate(0 0)"/><polygon class="cls-1" points="216.59 0 216.59 118.25 334.84 118.25 216.59 0"/></svg>