<svg id="レイヤー_1" data-name="レイヤー 1" xmlns="http://www.w3.org/2000/svg" viewBox="0 0 334.84 446.45"><defs><style>.cls-1{fill:#ffc133;}</style></defs><path class="cls-1" d="M202.33,0H0V446.45H334.84V132.51H202.33ZM83.08,233.61a57,57,0,0,1-10.06,17,52.75,52.75,0,0,1-12.6,10.59q-6.64,3.92-19.34,7.23-6.54,1.47-8.59-6.25-.69-7.71,6.25-9,12.49-2.94,19.38-8.7a36.31,36.31,0,0,0,10.31-13.81,49.57,49.57,0,0,0,4-15.38q.58-5.37-5.17-5.18H35.71q-7.82,0-7.81-7.81t7.81-7.82H72.53q15.42,0,15.23,16.7A69.6,69.6,0,0,1,83.08,233.61Zm45.7,1.17a44.2,44.2,0,0,1-3.32,17.09,39.14,39.14,0,0,1-7.33,11.38,39.62,39.62,0,0,1-10.44,7.56c-4.24,1.57-7,.46-8.31-3.32q-1.75-6.35,2.64-8.3a21.81,21.81,0,0,0,6.15-3.51,20.78,20.78,0,0,0,5.57-7.52q2.45-5.08,2.54-13.87v-1.46q0-6.26,6.15-6.25,6.34,0,6.35,6.25Zm25.68-11.52a42.36,42.36,0,0,1-6,12.3,34.24,34.24,0,0,1-7.86,8.3q-6,3.91-9-1-2.73-5.65,1.27-8.59a21,21,0,0,0,5.57-5.47q2.53-3.51,2.73-6,.58-4.49-3.51-4.29H106q-6.34,0-6.34-6.35v-.1q0-6.24,6.34-6.25h37.5q7,.1,10,5.13T154.46,223.26ZM271.94,200.5q0-7.42,7.43-7.42t7.42,7.42v45.61q.09,3,3.32,1.75a40.19,40.19,0,0,0,5.95-3.61q5.18-3.9,9.38,0,3.22,5.76-1.17,10.55a47.4,47.4,0,0,1-14.46,11.33q-7.12,3.12-12.4-.39t-5.47-10.94Zm-29.78,59.38a155.16,155.16,0,0,0,5.12-19.29,100.59,100.59,0,0,0,1.62-18.7V201.48q0-7.32,7.32-7.33t7.42,7.33v20.41a127.94,127.94,0,0,1-2.39,26,101.3,101.3,0,0,1-5,17.09q-3.12,6.45-10.16,4.3Q239.33,266.81,242.16,259.88Zm-29.4-65.24q3.13-4.87,10.16-2.34,6.65,4.09,3.12,9.76a111.76,111.76,0,0,1-6.88,9.67q-3.37,4.2-8.25,9.77v43.65q0,7.71-7.72,7.71t-7.71-7.71V233.41a113.5,113.5,0,0,1-20.22,12.4q-5.85,2.64-9-2.73-2.44-8.1,3.51-10.94a90.8,90.8,0,0,0,13.43-7A89.81,89.81,0,0,0,199,212.46,81.29,81.29,0,0,0,212.76,194.64Z"/><polygon class="cls-1" points="216.59 0 216.59 118.25 334.84 118.25 216.59 0"/></svg>