<svg id="レイヤー_1" data-name="レイヤー 1" xmlns="http://www.w3.org/2000/svg" viewBox="0 0 832.27 350.29"><defs><style>.cls-1,.cls-4{fill:none;stroke-linejoin:round;}.cls-1,.cls-2,.cls-4,.cls-6{stroke:#fcbe00;}.cls-1,.cls-4,.cls-6{stroke-linecap:round;}.cls-1{stroke-width:12px;}.cls-2,.cls-6{fill:#fff15c;}.cls-2,.cls-6,.cls-7{stroke-miterlimit:10;}.cls-2{stroke-width:6px;}.cls-3{fill:#fcbe00;}.cls-4{stroke-width:3px;}.cls-5{fill:#7f62ff;}.cls-6{stroke-width:9px;}.cls-7{fill:#ffe6b3;stroke:#e9bc00;}</style></defs><path class="cls-1" d="M189.09,268.27c4.74,7.7,27.78,0,38.51,10.87,33.49,33.9,106.85,50.67,181.93,44.67,162.11-12.95,270.52-35,369-4.2"/><path class="cls-2" d="M68.13,180.92C80.3,201.06,90.24,218.37,120,251c14.08,15.44,37.66,35.8,59.91,41.85,7.95,2.16,33.44,8.69,60.79-3.08a78.18,78.18,0,0,0,32.6-25.11c2.84-3.81,12.63-17.24,14.54-36.13,1.39-13.77-1.62-28.41-15.86-53.3-28-48.87-63.41-75.85-82.82-89.86C187,83.79,160,64.54,138.73,61.82c-15.9-2-22.49-1.65-22.49-1.65-6.86.42-9.69,1.46-14.95,0C95.56,58.61,88,54.37,87.45,48.87c-.21-2.2.85-3.17,0-4.86-1.44-2.88-6.71-4.65-10.64-2.55-3,1.6-4.92,5.28-4.17,8.1.68,2.55,3.06,2.59,4.63,5.09,3.07,4.88-1,12.53-1.62,13.65-4.21,7.89-11.27,9.41-17.12,13.42-14.66,10-14.39,43-12.89,52.3C48.19,149.72,54.82,158.91,68.13,180.92Z"/><path class="cls-3" d="M76.68,38.16c-4.8,1.83-9,7.38-7.45,12.4,1.67,5.3,9,7.35,14.28,5.52,5.07-1.77,9.42-7.5,7.82-12.55C89.63,38.2,82.07,36.1,76.68,38.16Z"/><path class="cls-4" d="M98.63,60.14c1.93-4.6,9-13.7,17.35-19.6,12.74-9,18.71-8.85,23.86-10"/><path class="cls-4" d="M105.71,60.91c16.43-17.36,28.72-20.46,34.13-21.63"/><path class="cls-4" d="M35.39,74.06c14.51-3.14,28.83-6.75,42.22-6.75"/><path class="cls-4" d="M32.14,92.74c22.43-13.5,25-15.12,48.05-18.68"/><path class="cls-5" d="M78.6,85.36c-3.7,1-5.52,5.39-4.7,8.82,1,4.4,6.44,7.33,10.19,5.49,3.43-1.68,4.47-6.85,2.55-10.39C85.23,86.69,81.93,84.45,78.6,85.36Z"/><path class="cls-5" d="M108.4,77.74c1.9,2.94,5.3,4.14,7.84,3.13,3.42-1.36,4.42-6.41,2.45-9.68-1.84-3-6.38-4.72-9.33-2.52C106.9,70.52,106.21,74.58,108.4,77.74Z"/><path class="cls-3" d="M368.44,103.79l42.77-55.31h27.62l-22.57,109H390l12.79-61.63-33,43.62h-15L340.32,96.36,327.7,157.51H301.43L324,48.48h24.42Z"/><path class="cls-3" d="M512.74,122.43c-4.55,22.91-16.5,36.66-44.62,36.66-23.91,0-34-16-29.47-36.66l2-9.32c5.05-23.23,18-36.19,44.45-36.19,23.92,0,33.34,13.59,29.47,36.35Zm-24.92-1.1,1.35-7c2.35-11.69,1-17.54-8.09-17.54s-13.13,5.85-15.49,17.54l-1.34,7c-2,10.42-2.36,17.85,8.08,17.85S485.8,131.75,487.82,121.33Z"/><path class="cls-3" d="M591.54,157.51H566.79l1-5.21c-4.38,4.74-8.76,6.79-19,6.79-15.32,0-29.3-8.85-24.58-31.29l10.27-49.3h25.25l-9.26,44.88c-2.19,10.75-.5,15.49,7.92,15.49,8.59,0,12.63-4.43,14.82-15.33l9.26-45h25.42Z"/><path class="cls-3" d="M663.43,102.68c-2.35-3.48-5.39-5.53-13.13-5.53-3.87,0-8.76.79-8.76,4.74,0,2.21,2.53,3.48,9.26,4.74,18.86,3.48,26.78,12,26.78,24,0,17.85-14.48,28.44-39.57,28.44-17.18,0-26.78-4.26-32.5-13.59l21.55-12.8c2.19,3.64,5.05,6.17,14.65,6.17,6.06,0,9.94-1.58,9.94-4.9,0-2.53-2.87-3.64-9.77-5.06-16-3.48-26.27-11.22-26.27-23.7,0-16.91,13.47-28.29,39.4-28.29,13.81,0,24.42,3.64,29.3,13.43Z"/><path class="cls-3" d="M754.36,145.82c-8.25,9.64-18,13.27-34.52,13.27-26.27,0-34.35-18-30.65-35.71l2.36-11.06c5.22-24.5,18.19-35.4,42.6-35.4s32,15.49,27.61,37.77L759.91,124H714.28c-1.51,9-.34,15.17,9.94,15.17,7.91,0,9.93-2.21,13.8-5.85Zm-36.54-37.61h20c1.18-8.69-1.68-11.38-7.57-11.38C723.71,96.83,720,101.1,717.82,108.21Z"/><path class="cls-3" d="M368.44,227.76l42.77-55.3h27.62l-22.57,109H390l12.79-61.63-33,43.62h-15l-14.48-43.14L327.7,281.49H301.43l22.56-109h24.42Z"/><path class="cls-3" d="M470.64,233.29h15l.51-2.37c1.68-7.74.67-10.74-11.12-10.74-7.24,0-10.77,1.26-14.65,5.37l-16-12c9.09-10.43,19.7-12.64,37.55-12.64,21.89,0,33.34,7.9,28.79,30.18l-10.44,50.41H475.7l1.17-5.69c-3.53,3.95-8.92,7.27-19.19,7.27-12.63,0-23.74-7.43-23.74-21.81C433.94,243.25,448.59,233.29,470.64,233.29ZM482.26,250H470.81c-7.57,0-11.62,2.69-11.62,8.54,0,3.79,3.2,5.84,8.93,5.84,8.42,0,12.12-4.74,13.64-12Z"/><path class="cls-3" d="M572.17,226.66c-2.35-3.48-5.38-5.53-13.13-5.53-3.87,0-8.76.79-8.76,4.74,0,2.21,2.53,3.47,9.27,4.74,18.85,3.47,26.77,12,26.77,24,0,17.85-14.48,28.44-39.57,28.44-17.18,0-26.77-4.27-32.5-13.59l21.55-12.8c2.19,3.64,5.06,6.16,14.65,6.16,6.06,0,9.94-1.58,9.94-4.89,0-2.53-2.87-3.64-9.77-5.06-16-3.48-26.27-11.22-26.27-23.7,0-16.91,13.47-28.29,39.4-28.29,13.81,0,24.42,3.63,29.3,13.43Z"/><path class="cls-3" d="M603.83,202.48H614.6l3.54-17.38H643.4l-3.54,17.38H655l-4.2,19.91H635.65l-6.06,29.55c-1.35,6.32,0,9,6.23,9h7.07l-4.21,20.54h-9.93c-20,0-29.13-6.95-25.09-26.55l6.73-32.55H599.62Z"/><path class="cls-3" d="M720.18,269.8c-8.26,9.64-18,13.27-34.52,13.27-26.27,0-34.35-18-30.65-35.71l2.36-11.06c5.22-24.5,18.18-35.4,42.6-35.4s32,15.49,27.61,37.77L725.73,248H680.1c-1.52,9-.34,15.17,9.94,15.17,7.91,0,9.93-2.21,13.8-5.85Zm-36.54-37.61h20c1.18-8.69-1.68-11.38-7.57-11.38C689.53,220.81,685.83,225.08,683.64,232.19Z"/><path class="cls-3" d="M788.87,226.82c-1-2.38-2.7-5.69-7.58-5.69-7.24,0-12.46,4.74-14.65,15.32l-9.26,45H732.12l16.34-79H773l-1,5.21a28.84,28.84,0,0,1,19-6.79c9.6,0,15.83,5.69,18.86,13.59Z"/><path class="cls-6" d="M128.72,101.8c12.61,16.84,33.12,24.35,50.89,18.92,15.23-4.65,32.2-19.94,30-38.5-1.34-11.45-9.71-21.82-20.87-26.1-13.74-5.26-30-.63-39.8,11.75"/><path class="cls-6" d="M110.43,121.23c1.51,3,9.91,20.22,2.61,39.8-1.43,3.84-1.81,18.33-18.68,28-29.37,16.8-45.67,1.73-46.52.94-38.72-36,3.53-78.63,19.24-78.63"/><path class="cls-7" d="M71.84,125c-15.61,3-22,17.59-22.3,18.28C44.21,156,47,174.37,59.14,180.5c13.27,6.68,30.43-4.91,37.18-17.35,4.58-8.44,7.75-23.51-.93-32.54C87.15,122.05,73.73,124.67,71.84,125Z"/><path class="cls-7" d="M154.77,75.3c2.35-2.3,9-8.81,19.16-9,1.49,0,15.13-.06,20.34,9.93,5.57,10.68-3.77,22.64-5,24.13-7.68,9.54-19.08,10.27-21.29,10.41s-19.93,3-23.9-11.91C142.49,92.75,149.41,80.57,154.77,75.3Z"/><path class="cls-4" d="M35.39,61.82c14.51-3.14,28.83-.91,42.22-.91"/><path class="cls-4" d="M93.5,54C105.71,36.17,113.39,29,128.72,24"/></svg>